<svg width="26" height="26" viewBox="0 0 26 26" fill="none" xmlns="http://www.w3.org/2000/svg">
<g clip-path="url(#clip0_80_39)">
<path d="M4.25704 7.59494C3.98909 7.59494 3.771 7.81298 3.771 8.08099C3.771 8.34899 3.98904 8.56703 4.25704 8.56703C4.52505 8.56703 4.74309 8.34899 4.74309 8.08099C4.74309 7.81298 4.525 7.59494 4.25704 7.59494Z" fill="#919191"/>
<path d="M4.25725 3.8237C1.90982 3.8237 0 5.73352 0 8.0809C0 9.24378 0.634319 10.7631 1.88528 12.5968C2.78025 13.9086 3.66367 14.9006 3.7008 14.9422C3.8424 15.1006 4.04479 15.1911 4.25725 15.1911C4.46971 15.1911 4.6721 15.1006 4.81371 14.9422C4.85089 14.9006 5.73425 13.9086 6.62922 12.5968C7.88023 10.7632 8.5145 9.24378 8.5145 8.0809C8.5145 5.73352 6.60468 3.8237 4.25725 3.8237ZM4.25725 10.0596C3.16626 10.0596 2.27865 9.17194 2.27865 8.08095C2.27865 6.98992 3.16626 6.10235 4.25725 6.10235C5.34829 6.10235 6.23585 6.98996 6.23585 8.08095C6.2359 9.17194 5.34824 10.0596 4.25725 10.0596Z" fill="#919191"/>
<path d="M17.5979 19.9636H15.7407C14.425 19.9636 13.3545 18.8931 13.3545 17.5774C13.3545 15.4386 11.6144 13.6985 9.47556 13.6985H7.68163C7.26939 14.2859 6.86857 14.8025 6.5542 15.1911H9.47566C10.7915 15.1911 11.8619 16.2616 11.8619 17.5774C11.8619 19.7162 13.602 21.4563 15.7407 21.4563H18.7253C18.4109 21.0676 18.0101 20.551 17.5979 19.9636Z" fill="#919191"/>
<path d="M21.0227 13.86C20.7547 13.86 20.5366 14.0781 20.5366 14.3461C20.5366 14.6141 20.7547 14.8321 21.0227 14.8321C21.2907 14.8321 21.5087 14.6141 21.5087 14.3461C21.5087 14.078 21.2907 13.86 21.0227 13.86Z" fill="#919191"/>
<path d="M21.0228 10.0888C18.6754 10.0888 16.7656 11.9987 16.7656 14.346C16.7656 15.509 17.3999 17.0283 18.6509 18.862C19.5459 20.1737 20.4292 21.1658 20.4664 21.2073C20.608 21.3657 20.8104 21.4563 21.0229 21.4563C21.2354 21.4563 21.4377 21.3657 21.5794 21.2073C21.6166 21.1658 22.4999 20.1738 23.3948 18.862C24.6459 17.0284 25.2801 15.509 25.2801 14.346C25.2801 11.9986 23.3703 10.0888 21.0228 10.0888ZM21.0228 16.3247C19.9318 16.3247 19.0442 15.4371 19.0442 14.3461C19.0442 13.2551 19.9318 12.3675 21.0228 12.3675C22.1138 12.3675 23.0014 13.2551 23.0014 14.3461C23.0014 15.4371 22.1139 16.3247 21.0228 16.3247Z" fill="#919191"/>
</g>
<defs>
<clipPath id="clip0_80_39">
<rect width="25.28" height="25.28" fill="white"/>
</clipPath>
</defs>
</svg>
