<svg width="21" height="21" viewBox="0 0 21 21" fill="none" xmlns="http://www.w3.org/2000/svg">
<g clip-path="url(#clip0_80_31)">
<path d="M17.0945 4.25073C16.1651 4.89773 14.8865 4.67181 14.2395 3.74751C13.5873 2.81806 13.8133 1.53945 14.7427 0.887335C15.6721 0.235175 16.9507 0.461099 17.6029 1.39055C18.2499 2.31995 18.0239 3.59856 17.0945 4.25073Z" fill="#919191"/>
<path d="M16.468 15.3629L18.486 5.64746H20.54L18.4912 15.6659C18.1112 18.1717 15.9545 20.0255 13.4178 20.0255H6.16203V17.9714H13.4229C14.9429 17.9714 16.2369 16.8622 16.468 15.3629Z" fill="#919191"/>
<path d="M5.92622 13.8634H10.9379L11.9906 9.65273C10.3731 10.5668 8.62209 11.2394 6.70157 10.9057V8.72333C8.37556 9.03658 10.2345 8.44089 11.5182 7.44471L13.2076 6.13014C13.4387 5.95043 13.7108 5.82204 13.9932 5.73986C14.3167 5.64743 14.6659 5.62178 15.01 5.67824L15.0356 5.6834C16.2937 5.90422 17.1359 7.10065 16.915 8.35871L15.5234 14.4385C15.2461 15.8918 13.9778 16.9444 12.4989 16.9444H5.46397L1.54085 20.0254L0.000354767 18.4849L5.92622 13.8634Z" fill="#919191"/>
</g>
<defs>
<clipPath id="clip0_80_31">
<rect width="20.54" height="20.54" fill="white" transform="matrix(-1 0 0 1 20.54 0)"/>
</clipPath>
</defs>
</svg>
