<svg width="22" height="18" viewBox="0 0 22 18" fill="none" xmlns="http://www.w3.org/2000/svg">
<path d="M19.4671 5.02707L18.1715 6.97574C18.7963 8.22191 19.1022 9.60362 19.0618 10.9971C19.0213 12.3905 18.6358 13.7522 17.9398 14.96H3.34059C2.43596 13.3906 2.06111 11.5716 2.27161 9.77241C2.48211 7.97326 3.26677 6.28983 4.50925 4.97169C5.75172 3.65355 7.38589 2.77087 9.16947 2.45451C10.953 2.13815 12.7911 2.40494 14.4111 3.21534L16.3598 1.91974C14.3758 0.647538 12.0225 0.0774621 9.67628 0.300697C7.33004 0.523931 5.12646 1.52758 3.41801 3.1511C1.70955 4.77461 0.594935 6.9242 0.25245 9.25601C-0.0900352 11.5878 0.359398 13.9671 1.52886 16.0133C1.71268 16.3317 1.97662 16.5965 2.29446 16.7813C2.61229 16.9661 2.97295 17.0644 3.34059 17.0667H17.9293C18.3005 17.0681 18.6655 16.9715 18.9873 16.7865C19.3092 16.6016 19.5765 16.3348 19.7621 16.0133C20.7326 14.3321 21.2196 12.4154 21.1694 10.4749C21.1193 8.53429 20.5338 6.64533 19.4777 5.01654L19.4671 5.02707ZM9.15499 12.2319C9.35065 12.4277 9.58299 12.5831 9.83873 12.6891C10.0945 12.7952 10.3686 12.8497 10.6455 12.8497C10.9223 12.8497 11.1964 12.7952 11.4522 12.6891C11.7079 12.5831 11.9403 12.4277 12.1359 12.2319L18.0978 3.28907L9.15499 9.25094C8.95912 9.44659 8.80374 9.67893 8.69772 9.93468C8.59171 10.1904 8.53714 10.4646 8.53714 10.7414C8.53714 11.0183 8.59171 11.2924 8.69772 11.5481C8.80374 11.8039 8.95912 12.0362 9.15499 12.2319Z" fill="#919191"/>
</svg>
