<svg width="58" height="58" viewBox="0 0 58 58" fill="none" xmlns="http://www.w3.org/2000/svg">
<path d="M6.78316 39.3584C5.58545 39.3584 4.69606 40.4613 4.94509 41.6352C5.95306 46.4261 10.0917 50.3394 15.5703 51.9403V54.9761C15.5703 56.6481 16.9222 58 18.5942 58H39.4771C41.1491 58 42.501 56.6481 42.501 54.9761V51.9166C47.9441 50.3038 52.0471 46.4024 53.0551 41.6352C53.3041 40.4613 52.4147 39.3584 51.217 39.3584H42.501V35.4095C47.9441 33.7968 52.0471 29.8953 53.0551 25.1282C53.3041 23.9542 52.4147 22.8514 51.217 22.8514H42.501V18.9025C47.9441 17.2897 52.0471 13.3883 53.0551 8.62114C53.3041 7.44715 52.4147 6.34431 51.217 6.34431H42.501V3.02392C42.501 1.35187 41.1491 0 39.4771 0H18.5824C16.9103 0 15.5585 1.35187 15.5585 3.02392V6.32059H6.78316C5.58545 6.32059 4.69606 7.42343 4.94509 8.59742C5.95306 13.3883 10.0917 17.3016 15.5703 18.9025V22.8395H6.78316C5.58545 22.8395 4.69606 23.9423 4.94509 25.1163C5.95306 29.9072 10.0917 33.8205 15.5703 35.4214V39.3584H6.78316ZM29.0297 7.1744C32.2552 7.1744 34.8641 9.78327 34.8641 13.0088C34.8641 16.2343 32.2552 18.8432 29.0297 18.8432C25.8042 18.8432 23.1953 16.2343 23.1953 13.0088C23.1953 9.78327 25.8042 7.1744 29.0297 7.1744ZM29.0297 23.6933C32.2552 23.6933 34.8641 26.3022 34.8641 29.5277C34.8641 32.7532 32.2552 35.3621 29.0297 35.3621C25.8042 35.3621 23.1953 32.7532 23.1953 29.5277C23.1953 26.3022 25.8042 23.6933 29.0297 23.6933ZM29.0297 40.2122C32.2552 40.2122 34.8641 42.8211 34.8641 46.0466C34.8641 49.2721 32.2552 51.881 29.0297 51.881C25.8042 51.881 23.1953 49.2721 23.1953 46.0466C23.1953 42.8211 25.8042 40.2122 29.0297 40.2122Z" fill="white"/>
</svg>
