<svg width="58" height="58" viewBox="0 0 58 58" fill="none" xmlns="http://www.w3.org/2000/svg">
<g clip-path="url(#clip0_161_61)">
<path d="M57.9996 2.60123C57.996 1.12851 56.4239 0.22769 55.2118 1.00824C41.4449 9.87566 26.972 23.6501 20.3095 23.8321C14.6952 18.6273 10.1853 16.6782 6.53402 17.8744C3.38206 18.907 1.19815 22.2302 0.0430197 27.7516C-0.280687 29.2993 1.28464 30.5451 2.65102 29.8278C5.60312 28.2781 7.73678 28.2284 9.77165 29.6651C13.6935 32.9014 13.1067 43.2824 18.281 46.0579C21.6718 47.8768 25.8647 48.0187 30.7724 46.4859C31.5655 50.6641 35.5585 53.8002 39.0369 56.0776C39.4824 56.3693 40.0422 56.4545 40.5681 56.2808C48.827 53.5532 55.4024 46.3889 51.4473 38.7099C51.0461 37.9309 50.1753 37.544 49.3513 37.7796C46.0569 38.7216 42.5746 38.443 38.7113 36.9276L37.0595 35.8036C53.8849 34.1257 58.0417 20.1317 57.9996 2.60123V2.60123Z" fill="white"/>
<path d="M21.3739 19.8027C24.6895 18.6873 29.751 15.0015 32.6289 12.8754C31.6887 7.91135 29.2091 3.71264 25.7179 0.252465C24.7122 -0.744728 23.0351 -0.250486 22.6896 1.14399L18.6077 17.6135C19.5101 18.261 20.4319 18.9904 21.3739 19.8027V19.8027Z" fill="white"/>
</g>
<defs>
<clipPath id="clip0_161_61">
<rect width="58" height="58" fill="white"/>
</clipPath>
</defs>
</svg>
